<svg width="235" height="87" viewBox="0 0 235 87" fill="none" xmlns="http://www.w3.org/2000/svg">
<path d="M21.1902 50.129V58.6229C20.2305 58.4789 19.3187 58.4069 18.4549 58.4069C12.1685 58.4069 9.02524 61.8381 9.02524 68.7004V85.4003H0.675293V50.3449H8.80929V55.9595C9.62509 54.088 10.9448 52.6244 12.7683 51.5686C14.5919 50.4649 16.6554 49.913 18.9588 49.913C19.7266 49.913 20.4704 49.985 21.1902 50.129Z" fill="white"/>
<path d="M36.4387 85.4003H28.1607V50.3449H36.4387V85.4003ZM28.4486 41.851C27.3929 40.7953 26.865 39.5236 26.865 38.036C26.865 36.5483 27.3929 35.2766 28.4486 34.2209C29.5044 33.1172 30.7761 32.5653 32.2637 32.5653C33.7993 32.5653 35.095 33.0932 36.1507 34.1489C37.2065 35.2047 37.7344 36.5003 37.7344 38.036C37.7344 39.5236 37.2065 40.7953 36.1507 41.851C35.095 42.9068 33.7993 43.4346 32.2637 43.4346C30.7761 43.4346 29.5044 42.9068 28.4486 41.851Z" fill="white"/>
<path d="M55.4887 85.4003H47.2107V50.3449H55.2007V54.8078C56.1605 53.0803 57.6002 51.7366 59.5197 50.7768C61.4872 49.8171 63.5027 49.3372 65.5662 49.3372C67.9176 49.3372 70.0291 49.865 71.9006 50.9208C73.7722 51.9765 75.1638 53.5121 76.0756 55.5277C78.523 51.4007 82.3141 49.3372 87.4488 49.3372C90.904 49.3372 93.8312 50.4649 96.2306 52.7203C98.6301 54.9758 99.8298 58.287 99.8298 62.6539V85.4003H91.7677V64.0216C91.7677 61.8621 91.1919 60.1345 90.0402 58.8388C88.9364 57.4952 87.2569 56.8233 85.0014 56.8233C82.8419 56.8233 81.0904 57.5671 79.7467 59.0548C78.403 60.5424 77.7312 62.39 77.7312 64.5974V85.4003H69.5252V64.0216C69.5252 61.8621 68.9494 60.1345 67.7976 58.8388C66.6939 57.4952 65.0143 56.8233 62.7589 56.8233C60.5514 56.8233 58.7759 57.5671 57.4322 59.0548C56.1365 60.4944 55.4887 62.342 55.4887 64.5974V85.4003Z" fill="white"/>
<path d="M107.895 75.8986C107.895 72.9234 108.855 70.548 110.774 68.7724C112.742 66.9488 115.309 65.7971 118.477 65.3172L127.474 63.9496C129.202 63.7096 130.066 62.8698 130.066 61.4302C130.066 59.8466 129.514 58.5749 128.41 57.6151C127.306 56.6074 125.651 56.1035 123.443 56.1035C121.332 56.1035 119.652 56.7034 118.405 57.9031C117.157 59.0548 116.437 60.5664 116.245 62.438L108.615 60.7104C108.951 57.5432 110.463 54.8558 113.15 52.6484C115.837 50.3929 119.244 49.2652 123.371 49.2652C128.458 49.2652 132.201 50.4889 134.601 52.9363C137.048 55.3837 138.272 58.5269 138.272 62.366V79.7857C138.272 82.0891 138.416 83.9607 138.704 85.4003H130.929C130.69 84.6805 130.57 83.1928 130.57 80.9374C128.266 84.6325 124.667 86.48 119.772 86.48C116.221 86.48 113.342 85.4483 111.134 83.3848C108.975 81.2733 107.895 78.7779 107.895 75.8986ZM121.356 79.9296C123.947 79.9296 126.035 79.2338 127.618 77.8422C129.25 76.4025 130.066 74.0751 130.066 70.8599V69.2763L120.924 70.6439C117.805 71.1718 116.245 72.7554 116.245 75.3948C116.245 76.6425 116.701 77.7222 117.613 78.634C118.525 79.4977 119.772 79.9296 121.356 79.9296Z" fill="white"/>
<path d="M168.88 50.129V58.6229C167.921 58.4789 167.009 58.4069 166.145 58.4069C159.859 58.4069 156.715 61.8381 156.715 68.7004V85.4003H148.365V50.3449H156.499V55.9595C157.315 54.088 158.635 52.6244 160.459 51.5686C162.282 50.4649 164.346 49.913 166.649 49.913C167.417 49.913 168.161 49.985 168.88 50.129Z" fill="white"/>
<path d="M208.675 50.3449L194.278 65.1733L208.963 85.4003H198.741L188.448 71.0758L184.129 75.6107V85.4003H175.851V33.2851H184.129V61.7069C184.129 62.7231 185.37 63.2182 186.069 62.4812L197.59 50.3449H208.675Z" fill="white"/>
<path d="M193.904 38.8011C193.814 30.3566 193.702 15.0809 193.922 4.63535C193.95 3.30245 195.042 2.24939 196.375 2.24939H228.328C230.524 2.24939 231.635 4.91487 230.102 6.4874C219.764 17.0926 205.234 32.7709 198.168 40.4354C196.657 42.0744 193.928 41.0303 193.904 38.8011Z" fill="white" fill-opacity="0.5"/>
<path d="M231.925 36.5517C232.015 28.1072 232.127 12.8316 231.907 2.38596C231.879 1.05306 230.787 0 229.454 0H197.501C195.305 0 194.193 2.66548 195.726 4.23801C206.064 14.8432 220.594 30.5215 227.66 38.186C229.171 39.825 231.901 38.7809 231.925 36.5517Z" fill="white"/>
</svg>
